# xmcd
#
# Track frame offsets: 
#        150
#        12924
#        31202
#        47828
#        61974
#        82162
#        95898
#        116607
#        127369
#        140766
#        155276
#        169880
#
# Disc length: 2444 seconds
#
# Revision: 0
# Processed by: cddbd v1.5.2PL0 Copyright (c) Steve Scherf et al.
# Submitted via: ExactAudioCopy v1.3
#
DISCID=ad098a0c
DTITLE=Dana Gillespie and Al Cook - Take It Off Slowly
DYEAR=2018
DGENRE=Blues
TTITLE0=I Want My Hands On It
TTITLE1=No More Waiting
TTITLE2=He's Just My Size
TTITLE3=Eat Your Heart Out
TTITLE4=Take It Off Slowly
TTITLE5=Fck Blues
TTITLE6=Love Operation
TTITLE7=Red Light
TTITLE8=My Handy Man
TTITLE9=Press That Button, Ring That Bell
TTITLE10=He Cooks Up A Storm
TTITLE11=Auto Mechanic Blues
EXTD=
EXTT0=
EXTT1=
EXTT2=
EXTT3=
EXTT4=
EXTT5=
EXTT6=
EXTT7=
EXTT8=
EXTT9=
EXTT10=
EXTT11=
PLAYORDER=
